<svg fill="none" height="22" viewBox="0 0 31 22" width="31" xmlns="http://www.w3.org/2000/svg"><path d="M16.2876 16.6488C10.3417 21.7287 6.12058 22.0853 3.95909 19.9238C1.96499 17.9297 3.61703 12.9372 7.64889 8.0029L0 0.354004H4.89064L12.4886 7.95196C7.69257 12.7771 4.89792 17.9152 6.33891 19.3634C7.53974 20.5643 11.2223 18.8977 15.1959 15.5572L16.2876 16.6488Z" fill="white"></path><path d="M30.2407 20.8191H25.3501L17.7521 13.2212C22.5481 8.39604 25.3428 3.25796 23.9018 1.81697C22.701 0.616144 19.0184 2.28274 15.0448 5.62322L13.9531 4.53156C19.899 -0.548297 24.1274 -0.912183 26.2889 1.25658C28.283 3.25068 26.6309 8.24321 22.5991 13.1775L30.248 20.8264L30.2407 20.8191Z" fill="white"></path></svg>